<?xml version="1.0" encoding="utf-8"?>
<!-- Generator: Adobe Illustrator 27.5.0, SVG Export Plug-In . SVG Version: 6.00 Build 0)  -->
<svg version="1.1" id="Capa_1" xmlns="http://www.w3.org/2000/svg" xmlns:xlink="http://www.w3.org/1999/xlink" x="0px" y="0px"
	 viewBox="0 0 2122 2122" style="enable-background:new 0 0 2122 2122;" xml:space="preserve">
<g>
	<path style="fill:#CE9EC9;" d="M946.364,1662.097c-73.544-73.623-207.966-246.441-281.973-576.691
		c-0.059-0.258-0.273-0.448-0.531-0.482c-0.341-0.049-0.516,0.102-0.633,0.336l-20.799,41.208c-0.068,0.137-0.088,0.292-0.049,0.439
		l138.84,535.785c0.073,0.278,0.322,0.468,0.604,0.468h164.097c0.254,0,0.478-0.151,0.575-0.385
		C946.593,1662.54,946.54,1662.272,946.364,1662.097z"/>
	<g>
		<path style="fill:#412A57;" d="M1017.317,1192.762c0.049,0.01,0.161,0.02,0.21,0.02c53.773,0,97.525-43.751,97.525-97.525
			c0-47.883-34.187-88.205-81.379-96.078V415.867c0-0.097-0.024-0.195-0.068-0.282l-15.566-30.831
			c-0.131-0.263-0.434-0.385-0.702-0.326c-0.063,0.019-0.122,0.044-0.176,0.073c-0.112,0.063-0.205,0.156-0.263,0.273
			l-15.455,30.616c-0.043,0.088-0.068,0.185-0.068,0.283v583.511c-47.186,7.874-81.374,48.195-81.374,96.073
			C920.001,1148.991,963.719,1192.738,1017.317,1192.762z"/>
		<path style="fill:#412A57;" d="M1344.917,1661.911H690.136c-0.346,0-0.624,0.277-0.624,0.624v83.386
			c0,0.346,0.278,0.624,0.624,0.624h654.781c0.346,0,0.624-0.277,0.624-0.624v-83.386
			C1345.54,1662.189,1345.263,1661.911,1344.917,1661.911z"/>
		<path style="fill:#412A57;" d="M1344.917,1919.363H690.136c-0.346,0-0.624,0.277-0.624,0.624v99.001
			c0,0.346,0.278,0.624,0.624,0.624h654.781c0.346,0,0.624-0.277,0.624-0.624v-99.001
			C1345.54,1919.64,1345.263,1919.363,1344.917,1919.363z"/>
		<path style="fill:#412A57;" d="M1344.917,1780.459H690.136c-0.346,0-0.624,0.277-0.624,0.624v34.29
			c0,0.346,0.278,0.624,0.624,0.624h654.781c0.346,0,0.624-0.277,0.624-0.624v-34.29
			C1345.54,1780.737,1345.263,1780.459,1344.917,1780.459z"/>
		<path style="fill:#412A57;" d="M1344.917,1849.911H690.136c-0.346,0-0.624,0.277-0.624,0.624v34.29
			c0,0.346,0.278,0.624,0.624,0.624h654.781c0.346,0,0.624-0.277,0.624-0.624v-34.29
			C1345.54,1850.188,1345.263,1849.911,1344.917,1849.911z"/>
	</g>
	<g>
		<path style="fill:#B57FB6;" d="M945.478,1662.973c0.117,0.117,0.277,0.185,0.443,0.185h71.532c0.346,0,0.624-0.278,0.624-0.624
			v-470.382c0-0.346-0.277-0.624-0.624-0.624c-53.047-0.039-96.204-43.225-96.204-96.273c0-47.44,34.003-87.362,80.848-94.928
			c0.302-0.048,0.526-0.307,0.526-0.614V415.818l15.386-30.48c0.043-0.088,0.068-0.19,0.068-0.287c0-0.288-0.2-0.541-0.477-0.609
			c-0.277-0.049-0.57,0.068-0.701,0.326l-353.67,700.491c-0.068,0.131-0.083,0.277-0.054,0.419
			c32.19,143.644,78.67,271.454,138.148,379.873C844.206,1543.724,892.708,1610.145,945.478,1662.973z"/>
		<path style="fill:#B57FB6;" d="M1358.315,1814.749H676.611c-0.346,0-0.624,0.278-0.624,0.624v35.162
			c0,0.346,0.277,0.624,0.624,0.624h681.704c0.346,0,0.624-0.278,0.624-0.624v-35.162
			C1358.939,1815.027,1358.661,1814.749,1358.315,1814.749z"/>
	</g>
	<g>
		<path style="fill:#62398E;" d="M1017.482,1663.159h235.649c0.282,0,0.531-0.19,0.604-0.468l138.821-535.77
			c0.039-0.146,0.02-0.302-0.049-0.439l-358.903-710.898c-0.131-0.263-0.433-0.39-0.701-0.326c-0.278,0.068-0.477,0.321-0.477,0.609
			V999.71c0,0.307,0.224,0.565,0.526,0.614c46.85,7.566,80.852,47.488,80.852,94.933c0,53.086-43.191,96.277-96.321,96.277
			c-0.346,0-0.624,0.278-0.624,0.624v470.377C1016.859,1662.881,1017.137,1663.159,1017.482,1663.159z"/>
		<path style="fill:#62398E;" d="M1358.315,1745.297H676.611c-0.346,0-0.624,0.278-0.624,0.624v35.162
			c0,0.346,0.277,0.624,0.624,0.624h681.704c0.346,0,0.624-0.278,0.624-0.624v-35.162
			C1358.939,1745.575,1358.661,1745.297,1358.315,1745.297z"/>
		<path style="fill:#62398E;" d="M1358.315,1884.201H676.611c-0.346,0-0.624,0.278-0.624,0.624v35.162
			c0,0.346,0.277,0.624,0.624,0.624h681.704c0.346,0,0.624-0.278,0.624-0.624v-35.162
			C1358.939,1884.479,1358.661,1884.201,1358.315,1884.201z"/>
	</g>
	<path style="fill:#CED9A1;" d="M1754.699,119.375c-34.709,0-62.943,28.234-62.943,62.943c0,13.793,4.424,26.904,12.804,37.949
		l-236.823,228.988c-11.104-8.862-25.009-13.734-39.22-13.734c-21.915,0-42.495,11.664-53.861,30.484l-300.112-180.438
		c3.932-8.423,5.924-17.34,5.924-26.519c0-34.709-28.234-62.943-62.943-62.943c-34.709,0-62.943,28.234-62.943,62.943
		c0,10.704,2.777,21.306,8.039,30.69L475.944,634.005c-11.981-13.603-29.159-21.393-47.216-21.393
		c-34.709,0-62.943,28.233-62.943,62.943c0,34.709,28.234,62.948,62.943,62.948c34.709,0,62.948-28.239,62.948-62.948
		c0-10.709-2.777-21.311-8.039-30.694l486.679-344.267c11.976,13.608,29.15,21.398,47.211,21.398
		c19.868,0,38.114-9.115,50.158-25.028l301.32,181.169c-2.276,6.655-3.43,13.491-3.43,20.331c0,34.709,28.234,62.943,62.943,62.943
		c34.709,0,62.948-28.234,62.948-62.943c0-14.509-5.052-28.638-14.246-39.859l236.448-228.638
		c11.444,9.866,25.992,15.293,41.033,15.293c34.709,0,62.943-28.234,62.943-62.943
		C1817.642,147.609,1789.408,119.375,1754.699,119.375z"/>
</g>
</svg>
